<svg version="1.2" xmlns="http://www.w3.org/2000/svg" viewBox="0 0 1408 778" width="1408" height="778"><defs><clipPath clipPathUnits="userSpaceOnUse" id="cp1"><path d="m0 0.21h1407.68v777.32h-1407.68z"/></clipPath></defs><style>.a{mix-blend-mode:overlay;fill:#fff}</style><g clip-path="url(#cp1)"><path fill-rule="evenodd" class="a" d="m639.7 84l5.1-5.1 5.1 5.1-5.1 5.1z"/><path fill-rule="evenodd" class="a" d="m652.9 70.8l5.1-5.1 5.1 5.1-5.1 5.1z"/><path fill-rule="evenodd" class="a" d="m666 57.6l5.1-5.1 5.1 5.1-5.1 5.1z"/><path fill-rule="evenodd" class="a" d="m679.2 44.4l5.1-5.1 5.1 5.1-5.1 5.1z"/><path fill-rule="evenodd" class="a" d="m692.3 31.2l5.1-5.1 5.1 5.1-5.1 5.1z"/><path fill-rule="evenodd" class="a" d="m705.5 18l5.1-5.1 5.1 5.1-5.1 5.1z"/><path fill-rule="evenodd" class="a" d="m718.6 4.9l5.1-5.2 5.1 5.1-5 5.1z"/><path fill-rule="evenodd" class="a" d="m731.8-8.3l5.1-5.1 5.1 5.1-5.1 5.1z"/><path fill-rule="evenodd" class="a" d="m744.9-21.5l5.1-5.1 5.1 5.1-5.1 5.1z"/><path fill-rule="evenodd" class="a" d="m758.1-34.7l5.1-5.1 5.1 5.1-5.1 5.1z"/><path fill-rule="evenodd" class="a" d="m771.3-47.9l5.1-5.1 5.1 5.1-5.1 5.1z"/><path fill-rule="evenodd" class="a" d="m784.4-61.1l5.1-5.1 5.1 5.1-5.1 5.1z"/><path fill-rule="evenodd" class="a" d="m797.6-74.3l5.1-5.1 5.1 5.1-5.1 5.1z"/><path fill-rule="evenodd" class="a" d="m810.7-87.5l5.1-5.1 5.1 5.1-5.1 5.1z"/><path fill-rule="evenodd" class="a" d="m823.9-100.6l5.1-5.1 5.1 5-5.1 5.1z"/><path fill-rule="evenodd" class="a" d="m837-113.8l5.1-5.1 5.1 5.1-5 5.1z"/><path fill-rule="evenodd" class="a" d="m850.2-127l5.1-5.1 5.1 5.1-5.1 5.1z"/><path fill-rule="evenodd" class="a" d="m863.4-140.2l5-5.1 5.2 5.1-5.1 5.1z"/><path fill-rule="evenodd" class="a" d="m876.5-153.4l5.1-5.1 5.1 5.1-5.1 5.1z"/><path fill-rule="evenodd" class="a" d="m889.7-166.6l5.1-5.1 5.1 5.1-5.1 5.1z"/><path fill-rule="evenodd" class="a" d="m902.8-179.8l5.1-5.1 5.1 5.1-5.1 5.1z"/><path fill-rule="evenodd" class="a" d="m916-193l5.1-5.1 5.1 5.1-5.1 5.1z"/><path fill-rule="evenodd" class="a" d="m929.1-206.2l5.1-5.1 5.1 5.1-5.1 5.1z"/><path fill-rule="evenodd" class="a" d="m1303.3 410.8l5.1-5.1 5.1 5.1-5.1 5.1z"/><path fill-rule="evenodd" class="a" d="m1316.4 397.6l5.1-5.1 5.1 5.1-5.1 5.1z"/><path fill-rule="evenodd" class="a" d="m1329.6 384.4l5.1-5.1 5.1 5.1-5.1 5.1z"/><path fill-rule="evenodd" class="a" d="m1342.7 371.2l5.1-5.1 5.1 5.1-5.1 5.1z"/><path fill-rule="evenodd" class="a" d="m1355.9 358l5.1-5.1 5.1 5.1-5.1 5.1z"/><path fill-rule="evenodd" class="a" d="m1369 344.9l5.1-5.2 5.1 5.1-5 5.1z"/><path fill-rule="evenodd" class="a" d="m1382.2 331.7l5.1-5.1 5.1 5.1-5.1 5.1z"/><path fill-rule="evenodd" class="a" d="m1395.4 318.5l5-5.1 5.2 5.1-5.1 5.1z"/><path fill-rule="evenodd" class="a" d="m1408.5 305.3l5.1-5.1 5.1 5.1-5.1 5.1z"/><path fill-rule="evenodd" class="a" d="m1421.7 292.2l5.1-5.1 5.1 5.1-5.1 5.1z"/><path fill-rule="evenodd" class="a" d="m1434.8 279l5.1-5.1 5.1 5.1-5.1 5.1z"/><path fill-rule="evenodd" class="a" d="m1448 265.7l5.1-5.1 5.1 5.1-5.1 5.1z"/><path fill-rule="evenodd" class="a" d="m1461.1 252.5l5.1-5.1 5.1 5.1-5.1 5.1z"/><path fill-rule="evenodd" class="a" d="m1474.3 239.4l5.1-5.1 5.1 5-5.1 5.1z"/><path fill-rule="evenodd" class="a" d="m1487.4 226.2l5.1-5.1 5.1 5.1-5 5.1z"/><path fill-rule="evenodd" class="a" d="m1500.6 213l5.1-5.1 5.1 5.1-5.1 5.1z"/><path fill-rule="evenodd" class="a" d="m1513.8 199.8l5-5.1 5.2 5.1-5.1 5.1z"/><path fill-rule="evenodd" class="a" d="m1526.9 186.6l5.1-5.1 5.1 5.1-5.1 5.1z"/><path fill-rule="evenodd" class="a" d="m1540.1 173.4l5.1-5.1 5.1 5.1-5.1 5.1z"/><path fill-rule="evenodd" class="a" d="m1553.2 160.2l5.1-5.1 5.1 5.1-5.1 5.1z"/><path fill-rule="evenodd" class="a" d="m1566.4 147l5.1-5.1 5.1 5.1-5.1 5.1z"/><path fill-rule="evenodd" class="a" d="m1579.5 133.9l5.1-5.2 5.1 5.1-5.1 5.1z"/><path fill-rule="evenodd" class="a" d="m1592.7 120.7l5.1-5.1 5.1 5-5.1 5.2z"/><path fill-rule="evenodd" class="a" d="m916.7 104.7l1299.7-1299.7 1.7 1.7-1299.8 1299.7z"/><path fill-rule="evenodd" class="a" d="m649.9 144l953.7-953.7 1.6 3.1-953.7 953.7-1.6-3.1z"/><path fill-rule="evenodd" class="a" d="m2029.5-1125l-1299.7 1299.8-2.7-2.7 1299.8-1299.7z"/><path fill-rule="evenodd" class="a" d="m1982.8-360.6l-810.1 810.1-1.9-1.9 810.1-810.1z"/><path fill-rule="evenodd" class="a" d="m2109.5-332.4l-810.1 810-1.9-1.9 810.1-810z"/><path fill-rule="evenodd" class="a" d="m908.8-308.2l-391 391 1.4 1.4 391-391.1-1.4-1.3z"/><path fill-rule="evenodd" class="a" d="m2002-524.2l-862.4 862.5-0.7-2.2 862.4-862.4 0.7 2.1z"/><path fill-rule="evenodd" class="a" d="m1974.3-684.6l-862.5 862.4-10.4-10.4 861-861.1 11.9 9.1z"/><path fill-rule="evenodd" class="a" d="m1132.1 94.7l625.8-625.9 2.4 2.4-625.8 625.9z"/><path fill-rule="evenodd" class="a" d="m978.2 204.9l1270.4-1270.4 1.7 1.7-1270.4 1270.4z"/><path fill-rule="evenodd" class="a" d="m1551.5-9l-5.3 5.3-5.3-5.4 5.3-5.3z"/><path fill-rule="evenodd" class="a" d="m1537.7 4.7l-5.4 5.3-5.3-5.4 5.4-5.3z"/><path fill-rule="evenodd" class="a" d="m1523.9 18.6l-5.4 5.3-5.3-5.3 5.4-5.3z"/><path fill-rule="evenodd" class="a" d="m1510 32l-5.3 5.3-5.3-5.3 5.3-5.3z"/><path fill-rule="evenodd" class="a" d="m1496.2 45.8l-5.4 5.3-5.3-5.3 5.4-5.3z"/><path fill-rule="evenodd" class="a" d="m1482.4 59.4l-5.4 5.3-5.3-5.4 5.4-5.3z"/><path fill-rule="evenodd" class="a" d="m1468.5 73.1l-5.3 5.3-5.3-5.3 5.3-5.3z"/><path fill-rule="evenodd" class="a" d="m1454.7 86.8l-5.4 5.3-5.3-5.4 5.4-5.3z"/><path fill-rule="evenodd" class="a" d="m1440.9 100.5l-5.4 5.3-5.3-5.3 5.4-5.3z"/><path fill-rule="evenodd" class="a" d="m1427 114.3l-5.3 5.3-5.3-5.4 5.3-5.3z"/><path fill-rule="evenodd" class="a" d="m1413.2 127.9l-5.3 5.3-5.3-5.4 5.3-5.3z"/><path fill-rule="evenodd" class="a" d="m1399.4 141.6l-5.4 5.3-5.3-5.4 5.4-5.3z"/><path fill-rule="evenodd" class="a" d="m1385.6 155.3l-5.4 5.3-5.3-5.3 5.4-5.3z"/><path fill-rule="evenodd" class="a" d="m1371.7 169.1l-5.3 5.3-5.3-5.4 5.3-5.3z"/><path fill-rule="evenodd" class="a" d="m1357.9 182.7l-5.3 5.3-5.3-5.4 5.3-5.3z"/><path fill-rule="evenodd" class="a" d="m1344.1 196.4l-5.4 5.3-5.3-5.4 5.4-5.3z"/><path fill-rule="evenodd" class="a" d="m1330.3 210.2l-5.4 5.3-5.3-5.4 5.3-5.3z"/><path fill-rule="evenodd" class="a" d="m1316.4 223.8l-5.3 5.3-5.3-5.4 5.3-5.3z"/><path fill-rule="evenodd" class="a" d="m1302.6 237.5l-5.4 5.3-5.3-5.4 5.4-5.3z"/><path fill-rule="evenodd" class="a" d="m1288.8 251.5l-5.4 5.3-5.3-5.4 5.3-5.3z"/><path fill-rule="evenodd" class="a" d="m1274.9 265l-5.3 5.3-5.3-5.3 5.3-5.4z"/><path fill-rule="evenodd" class="a" d="m1261.1 278.6l-5.3 5.3-5.3-5.4 5.3-5.3z"/><path fill-rule="evenodd" class="a" d="m1247.3 292.3l-5.4 5.3-5.3-5.4 5.4-5.3z"/><path fill-rule="evenodd" class="a" d="m1907.8-475.6l-782.3 782.2-0.6-0.6 782.3-782.3 0.6 0.7z"/><path fill-rule="evenodd" class="a" d="m1932.2-279.5l-782.3 782.3-0.6-0.6 782.3-782.3 0.6 0.6z"/><path fill-rule="evenodd" class="a" d="m1696-628.2l-782.2 782.3-0.6-0.6 782.2-782.3 0.6 0.6z"/><path fill-rule="evenodd" class="a" d="m1302.6-632.2l-782.2 782.2-0.7-0.6 782.3-782.3 0.6 0.7z"/></g></svg>